<svg width="44" height="28" viewBox="0 0 44 28" fill="none" xmlns="http://www.w3.org/2000/svg">
<path fill-rule="evenodd" clip-rule="evenodd" d="M0 0H44V28H0V0Z" fill="#229E45"/>
<path fill-rule="evenodd" clip-rule="evenodd" d="M22.0967 25.4295L42.8236 14.0155L21.9712 2.57046L1.17631 14.0428L22.0967 25.4295Z" fill="#F8E509"/>
<path fill-rule="evenodd" clip-rule="evenodd" d="M31.1279 14.0003C31.1279 18.1028 27.2021 21.4285 22.3593 21.4285C17.5164 21.4285 13.5906 18.1028 13.5906 14.0003C13.5906 9.89782 17.5165 6.57212 22.3593 6.57212C27.2022 6.57212 31.1279 9.89782 31.1279 14.0003Z" fill="#2B49A3"/>
<path fill-rule="evenodd" clip-rule="evenodd" d="M19.4769 18.4493L19.2058 18.3167L18.9244 18.4348L18.9874 18.1694L18.7701 17.975L19.0808 17.9441L19.2268 17.7061L19.357 17.9523L19.6637 17.9995L19.4337 18.1821M25.3529 19.7118L25.0821 19.5792L24.8007 19.6973L24.8637 19.4319L24.6465 19.2375L24.9572 19.2066L25.1031 18.9686L25.2333 19.2148L25.5399 19.262L25.31 19.4446M22.8202 17.695L22.5862 17.5804L22.3431 17.6824L22.3975 17.4532L22.2098 17.2852L22.4782 17.2585L22.6043 17.053L22.7168 17.2656L22.9817 17.3064L22.783 17.4642M28.755 16.9697L28.5252 16.8573L28.2865 16.9575L28.3399 16.7325L28.1557 16.5675L28.4192 16.5413L28.5429 16.3395L28.6534 16.5483L28.9135 16.5883L28.7185 16.7433M22.7129 15.4601L22.4421 15.3275L22.1607 15.4456L22.2236 15.1802L22.0063 14.9858L22.3171 14.9549L22.4631 14.7169L22.5933 14.9631L22.8999 15.0103L22.6699 15.1929M15.4777 13.1553L15.2068 13.0227L14.9253 13.1408L14.9883 12.8755L14.7711 12.6811L15.0818 12.6502L15.2277 12.4122L15.3579 12.6583L15.6645 12.7056L15.4346 12.8882M16.3478 16.2213L16.0769 16.0886L15.7954 16.2067L15.8584 15.9415L15.6412 15.747L15.9519 15.716L16.0979 15.4781L16.2281 15.7242L16.5347 15.7715L16.3048 15.9542M25.3766 12.0266L25.1373 11.9095L24.8887 12.0138L24.9444 11.7795L24.7523 11.6077L25.0269 11.5803L25.1558 11.3702L25.2708 11.5876L25.5417 11.6293L25.3386 11.7907M24.8804 14.0213L24.692 13.9291L24.496 14.0112L24.54 13.8266L24.3888 13.6913L24.605 13.6698L24.7066 13.5043L24.7972 13.6755L25.0105 13.7084L24.8505 13.8356M15.0743 16.7768L14.8935 16.6883L14.7056 16.7672L14.7475 16.59L14.6024 16.4602L14.8101 16.4396L14.9074 16.2807L14.9943 16.4451L15.199 16.4766L15.0455 16.5985M28.8052 17.4831L28.6577 17.4169L28.5046 17.4758L28.539 17.3434L28.4208 17.2462L28.5899 17.2307L28.6692 17.1119L28.74 17.2348L28.9068 17.2584L28.7817 17.3496" fill="#FFFFEF"/>
<path fill-rule="evenodd" clip-rule="evenodd" d="M15.0743 16.7768L14.8935 16.6883L14.7056 16.7672L14.7475 16.59L14.6024 16.4602L14.8101 16.4396L14.9074 16.2807L14.9943 16.4451L15.199 16.4766L15.0455 16.5985" fill="#FFFFEF"/>
<path fill-rule="evenodd" clip-rule="evenodd" d="M15.0743 16.7768L14.8935 16.6883L14.7056 16.7672L14.7475 16.59L14.6024 16.4602L14.8101 16.4396L14.9074 16.2807L14.9943 16.4451L15.199 16.4766L15.0455 16.5985M17.9536 16.7763L17.7728 16.6877L17.5849 16.7666L17.6268 16.5894L17.4818 16.4596L17.6894 16.439L17.7867 16.2802L17.8737 16.4445L18.0784 16.476L17.9249 16.5979M17.5959 17.589L17.4151 17.5004L17.2271 17.5793L17.2692 17.4021L17.1241 17.2723L17.3315 17.2516L17.4289 17.0927L17.5159 17.257L17.7206 17.2885L17.5671 17.4105M23.5745 16.1096L23.3937 16.0209L23.2058 16.0998L23.2477 15.9227L23.1027 15.7929L23.3102 15.7723L23.4076 15.6134L23.4946 15.7778L23.6992 15.8093L23.5457 15.9312M21.8201 16.109L21.6393 16.0204L21.4514 16.0993L21.4934 15.9221L21.3484 15.7924L21.5559 15.7718L21.6533 15.6129L21.7402 15.7772L21.9451 15.8087L21.7915 15.9306M17.0615 15.59L16.9482 15.5345L16.8303 15.5839L16.8567 15.473L16.7658 15.3917L16.8957 15.3787L16.9569 15.2792L17.0114 15.3822L17.1395 15.402L17.0433 15.4784M28.5821 18.1258L28.4013 18.0372L28.2134 18.116L28.2555 17.939L28.1104 17.8091L28.3179 17.7885L28.4153 17.6296L28.5022 17.7939L28.7069 17.8254L28.5534 17.9473M27.1212 18.2882L26.9715 18.2147L26.8158 18.2801L26.8507 18.133L26.7305 18.0252L26.9024 18.0081L26.9831 17.8761L27.0551 18.0126L27.2247 18.0389L27.0975 18.1401M27.8105 18.2741L27.6709 18.2057L27.526 18.2666L27.5584 18.1298L27.4464 18.0296L27.6066 18.0136L27.6817 17.8909L27.7488 18.0179L27.9067 18.0423L27.7882 18.1365M29.7895 16.8088L29.6551 16.7428L29.5155 16.8015L29.5468 16.6699L29.439 16.5733L29.5932 16.558L29.6656 16.44L29.7303 16.562L29.8822 16.5854L29.7682 16.676M27.104 19.1152L26.9284 19.0339L26.7461 19.1062L26.7869 18.9437L26.646 18.8245L26.8474 18.8056L26.942 18.6597L27.0264 18.8106L27.2251 18.8395L27.0761 18.9515M27.1138 19.7826L26.9536 19.7012L26.7874 19.7735L26.8247 19.611L26.6961 19.4918L26.8799 19.4729L26.9662 19.3271L27.0432 19.4779L27.2243 19.5068L27.0884 19.6187M25.787 18.2738L25.6526 18.2079L25.5129 18.2666L25.5442 18.135L25.4364 18.0385L25.5905 18.0232L25.663 17.9051L25.7276 18.0272L25.8798 18.0506L25.7656 18.1413M24.5432 18.2738L24.4089 18.2079L24.2693 18.2666L24.3005 18.135L24.1926 18.0385L24.3468 18.0232L24.4192 17.9051L24.4839 18.0272L24.6358 18.0506L24.5218 18.1413M22.4313 16.7068L22.2969 16.641L22.1573 16.6996L22.1885 16.5679L22.0807 16.4715L22.2349 16.4561L22.3073 16.338L22.3719 16.4601L22.524 16.4836L22.4099 16.5742M22.6666 19.9006L22.5527 19.8448L22.4345 19.8944L22.461 19.783L22.3696 19.7013L22.5002 19.6883L22.5616 19.5883L22.6163 19.6916L22.7451 19.7115L22.6484 19.7882M19.4769 14.7348L19.2059 14.6022L18.9245 14.7203L18.9875 14.455L18.7701 14.2605L19.0809 14.2296L19.2269 13.9916L19.3571 14.2378L19.6637 14.285L19.4338 14.4677" fill="#FFFFEF"/>
<path fill-rule="evenodd" clip-rule="evenodd" d="M30.5503 16.6727C30.684 16.3761 30.8562 15.9289 30.9479 15.5185C26.2906 12.0472 21.0988 10.2689 14.5386 10.6348C14.3034 11.0174 14.1151 11.4178 13.9563 11.8512C21.7294 11.222 27.4267 14.1419 30.5503 16.6727Z" fill="white"/>
<path d="M28.4566 14.721L28.623 14.7982C28.5968 14.8482 28.59 14.8921 28.6016 14.9294C28.614 14.967 28.6446 14.9999 28.6934 15.0279C28.745 15.0579 28.7913 15.0711 28.832 15.0676C28.8733 15.0641 28.9039 15.0497 28.9238 15.0247C28.936 15.0101 28.9415 14.9922 28.9393 14.9744C28.9374 14.9569 28.9261 14.9359 28.9053 14.9117C28.8908 14.8954 28.8557 14.8608 28.8001 14.808C28.7286 14.7404 28.6859 14.6833 28.6722 14.6368C28.6529 14.5713 28.6646 14.5119 28.7072 14.4583C28.7347 14.4239 28.7716 14.3982 28.8181 14.3814C28.8652 14.3645 28.9166 14.3607 28.9721 14.3698C29.0278 14.379 29.0865 14.4013 29.1474 14.4365C29.2473 14.4941 29.3076 14.556 29.3282 14.6222C29.3492 14.6886 29.3362 14.7537 29.2894 14.8174L29.1241 14.7308C29.1447 14.692 29.1499 14.6585 29.1391 14.6303C29.129 14.602 29.1013 14.5749 29.0559 14.5488C29.0094 14.522 28.9664 14.509 28.927 14.5101C28.9153 14.5101 28.9038 14.5126 28.8935 14.5173C28.8832 14.5221 28.8745 14.529 28.8682 14.5374C28.8554 14.5536 28.8525 14.5718 28.8593 14.5924C28.8682 14.6187 28.9052 14.662 28.971 14.7227C29.0365 14.7834 29.0813 14.833 29.105 14.8713C29.1294 14.9096 29.1405 14.9495 29.1382 14.9909C29.1366 15.0321 29.1186 15.0742 29.0847 15.1169C29.054 15.1556 29.0107 15.1859 28.9601 15.204C28.9079 15.2233 28.8522 15.228 28.7926 15.218C28.7334 15.2077 28.6692 15.1826 28.6002 15.1427C28.4997 15.0849 28.438 15.0207 28.4155 14.9502C28.3933 14.8795 28.4067 14.8028 28.4566 14.721ZM27.6675 14.2816L27.8374 14.3527C27.8137 14.4036 27.8088 14.4477 27.8223 14.4846C27.8366 14.5217 27.8685 14.5536 27.9186 14.5799C27.9718 14.6081 28.0186 14.6196 28.059 14.6147C28.1003 14.6097 28.1303 14.5945 28.1488 14.5689C28.1603 14.5539 28.165 14.5358 28.1619 14.5181C28.1592 14.5005 28.1469 14.4799 28.1247 14.4564C28.1096 14.4405 28.0732 14.4074 28.0149 14.3565C27.9402 14.2913 27.8949 14.2357 27.8789 14.1896C27.8567 14.1249 27.8656 14.0652 27.9054 14.0101C27.9311 13.975 27.9684 13.947 28.0127 13.9297C28.059 13.9112 28.1103 13.9056 28.166 13.9127C28.2222 13.9201 28.2818 13.9403 28.3444 13.9734C28.447 14.0274 28.5099 14.0873 28.5337 14.1527C28.5577 14.2184 28.5481 14.2838 28.5043 14.349L28.3349 14.2682C28.3538 14.2288 28.3574 14.1952 28.3452 14.1674C28.3337 14.1393 28.3046 14.1132 28.2583 14.0887C28.2104 14.0634 28.1669 14.052 28.1277 14.0545C28.1023 14.0559 28.0832 14.0659 28.0701 14.0839C28.0582 14.1003 28.0561 14.1185 28.0639 14.139C28.0739 14.1648 28.113 14.2069 28.1814 14.2654C28.2498 14.3238 28.2969 14.3717 28.3225 14.4092C28.3486 14.4465 28.3616 14.4861 28.3612 14.5275C28.3617 14.5688 28.3456 14.6113 28.3138 14.6554C28.2849 14.695 28.2431 14.7267 28.1935 14.7467C28.1422 14.7677 28.0865 14.7743 28.0266 14.7663C27.9672 14.7581 27.9018 14.735 27.8308 14.6977C27.7278 14.6433 27.6632 14.5813 27.6373 14.5116C27.6116 14.4416 27.6215 14.3649 27.6675 14.2816ZM26.6908 14.0595L27.191 13.3615L27.7986 13.6774L27.714 13.7956L27.272 13.5656L27.1609 13.7203L27.5723 13.9343L27.488 14.0519L27.0766 13.8379L26.9407 14.0279L27.3984 14.2659L27.314 14.3835L26.6908 14.0595ZM25.2682 13.0682L25.3425 12.9457L25.7137 13.1088L25.5387 13.3983C25.4844 13.4122 25.4163 13.4156 25.3337 13.4082C25.2541 13.4012 25.1768 13.3817 25.1056 13.3507C25.0163 13.3114 24.9482 13.2616 24.901 13.2007C24.8544 13.1407 24.831 13.07 24.8341 12.9982C24.8371 12.9229 24.86 12.849 24.9013 12.7822C24.9469 12.7065 25.0064 12.6475 25.0793 12.6049C25.152 12.5625 25.234 12.5413 25.3247 12.5413C25.394 12.5412 25.4694 12.5592 25.5509 12.5948C25.6569 12.6414 25.7281 12.6967 25.7643 12.7608C25.8015 12.8247 25.8082 12.8938 25.7848 12.9681L25.5973 12.9203C25.6069 12.8794 25.6012 12.8412 25.5801 12.8061C25.5597 12.7708 25.5247 12.7423 25.4751 12.7204C25.3997 12.6873 25.3276 12.6813 25.2582 12.7026C25.1894 12.7238 25.131 12.7744 25.0826 12.8543C25.0304 12.9406 25.0135 13.0153 25.0324 13.0784C25.0515 13.141 25.0973 13.1884 25.1705 13.2206C25.2065 13.2363 25.2461 13.2462 25.2894 13.2501C25.3334 13.254 25.3733 13.253 25.4099 13.2472L25.4656 13.1549L25.2682 13.0682ZM19.0641 11.7628L19.2039 10.9539L19.4908 10.9901L19.568 11.5632L19.8333 11.0328L20.1213 11.0689L19.9815 11.8779L19.8034 11.8557L19.9134 11.2188L19.6149 11.832L19.4303 11.8088L19.3523 11.1484L19.2423 11.7851L19.0641 11.7628ZM18.0942 11.6672L18.1839 10.8529L18.8925 10.9097L18.8776 11.0474L18.3617 11.0062L18.3418 11.1868L18.8216 11.2251L18.8064 11.3623L18.3265 11.3239L18.3023 11.5456L18.8361 11.5882L18.8209 11.7255L18.0942 11.6672Z" fill="#309E3A"/>
<path d="M14.8844 11.158C14.8871 11.0746 14.9039 11.0052 14.935 10.9492C14.958 10.9082 14.9893 10.871 15.0275 10.8393C15.0664 10.8071 15.1086 10.7835 15.1543 10.7687C15.2148 10.7484 15.2841 10.7392 15.3621 10.741C15.5035 10.7445 15.6153 10.7844 15.6974 10.861C15.7803 10.9377 15.8194 11.0426 15.8153 11.1757C15.8111 11.3075 15.7657 11.41 15.679 11.4827C15.5924 11.5551 15.4787 11.5897 15.3378 11.5864C15.195 11.5831 15.0829 11.5435 15.0009 11.4676C14.9191 11.3913 14.8802 11.288 14.8844 11.158Z" fill="#309E3A"/>
<path d="M15.0847 11.1564C15.0818 11.2489 15.1046 11.3197 15.1533 11.3689C15.2019 11.4177 15.265 11.443 15.3422 11.4447C15.4193 11.4465 15.4835 11.4243 15.5343 11.3783C15.5855 11.3318 15.6126 11.2613 15.6157 11.1664C15.6186 11.0728 15.5966 11.0023 15.5497 10.9551C15.5032 10.9079 15.44 10.8834 15.3601 10.8815C15.2802 10.8798 15.2151 10.9016 15.1647 10.9473C15.1143 10.9926 15.0877 11.0623 15.0847 11.1564Z" fill="#F7FFFF"/>
<path d="M16.0223 11.5798L16.0335 10.7621L16.4414 10.7662C16.5441 10.7672 16.6184 10.7753 16.6644 10.7907C16.711 10.8057 16.7479 10.8321 16.7753 10.87C16.8028 10.9079 16.8161 10.9508 16.8155 10.9992C16.8146 11.0606 16.7927 11.1111 16.7498 11.1508C16.7069 11.1901 16.6432 11.2146 16.5588 11.2243C16.6004 11.2454 16.6347 11.2686 16.6613 11.2939C16.6886 11.3189 16.7247 11.3636 16.7703 11.4276L16.8853 11.5883L16.6534 11.5859L16.5158 11.4066C16.467 11.3426 16.4335 11.3023 16.4154 11.2858C16.3972 11.2688 16.378 11.2573 16.3575 11.2512C16.3371 11.2447 16.3046 11.2412 16.2601 11.2408L16.2209 11.2404L16.2162 11.5817L16.0223 11.5798Z" fill="#309E3A"/>
<path d="M16.2234 11.1099L16.3668 11.1113C16.4598 11.1122 16.5179 11.1095 16.5411 11.103C16.5643 11.0965 16.5826 11.0852 16.5958 11.0689C16.6091 11.0527 16.616 11.0323 16.6165 11.0078C16.6167 10.9803 16.6084 10.958 16.591 10.9412C16.5743 10.9239 16.5502 10.9128 16.5188 10.9081C16.503 10.9061 16.4559 10.9046 16.3774 10.9039L16.2262 10.9024L16.2234 11.1099Z" fill="white"/>
<path d="M17.119 10.8026L17.4728 10.8178C17.5526 10.8213 17.6131 10.8292 17.6543 10.8414C17.7087 10.8575 17.7571 10.8856 17.7943 10.9229C17.8323 10.9605 17.8602 11.006 17.878 11.0594C17.8959 11.1123 17.9025 11.1769 17.898 11.2534C17.894 11.3206 17.8806 11.3781 17.8581 11.426C17.8306 11.4844 17.7936 11.5309 17.7468 11.5658C17.7118 11.5922 17.665 11.6119 17.607 11.6251C17.5636 11.6348 17.5061 11.638 17.4345 11.635L17.0704 11.6192L17.119 10.8026Z" fill="#309E3A"/>
<path d="M17.3048 10.9483L17.2726 11.4893L17.4172 11.4954C17.4712 11.4978 17.5105 11.4969 17.5348 11.4927C17.5664 11.4873 17.5932 11.4771 17.6145 11.462C17.6365 11.4469 17.6551 11.4215 17.6702 11.3856C17.6855 11.3495 17.6949 11.2999 17.6988 11.2367C17.7026 11.1735 17.6988 11.1248 17.6878 11.0904C17.6768 11.056 17.66 11.029 17.6376 11.009C17.6151 10.989 17.586 10.9749 17.5503 10.9667C17.5235 10.9603 17.4707 10.9555 17.3918 10.9521L17.3048 10.9483Z" fill="white"/>
<path d="M21.8371 12.2628L22.0612 11.4677L22.3637 11.5296C22.4782 11.553 22.5519 11.5723 22.5844 11.5873C22.6346 11.6102 22.672 11.6454 22.6967 11.6929C22.7215 11.7402 22.7249 11.7953 22.7072 11.8586C22.6934 11.9073 22.6715 11.9463 22.6413 11.9752C22.6112 12.0044 22.5772 12.0251 22.5395 12.0377C22.5024 12.05 22.4664 12.0557 22.4316 12.0552C22.3845 12.0535 22.3182 12.0441 22.2329 12.0266L22.1101 12.0014L22.0256 12.3013L21.8371 12.2628Z" fill="#309E3A"/>
<path d="M22.2122 11.6405L22.1485 11.8662L22.2516 11.8873C22.326 11.9024 22.3768 11.9085 22.4041 11.9052C22.4303 11.9025 22.4549 11.8929 22.4743 11.8777C22.4938 11.8626 22.5073 11.8427 22.5128 11.8208C22.5211 11.7919 22.5178 11.7659 22.5032 11.7432C22.4887 11.7204 22.4655 11.7025 22.4374 11.6924C22.4159 11.6841 22.3714 11.6731 22.3033 11.6592L22.2122 11.6405Z" fill="white"/>
<path d="M22.7292 12.4895L23.0482 11.7184L23.433 11.8338C23.5298 11.8629 23.5971 11.891 23.6349 11.9181C23.6734 11.9452 23.6984 11.9802 23.7101 12.0236C23.7218 12.0669 23.7183 12.1113 23.6994 12.1569C23.6754 12.2148 23.6356 12.2567 23.58 12.2825C23.5246 12.308 23.4551 12.3138 23.3716 12.2999C23.403 12.3314 23.4267 12.3626 23.4424 12.3938C23.4587 12.4251 23.4761 12.4772 23.495 12.5503L23.5434 12.7341L23.3247 12.6684L23.262 12.4609C23.2398 12.3869 23.2233 12.3396 23.2125 12.3189C23.2016 12.2979 23.1877 12.2817 23.1707 12.2702C23.1538 12.2585 23.1245 12.2463 23.0823 12.2337L23.0455 12.2225L22.9122 12.5445L22.7292 12.4895Z" fill="#309E3A"/>
<path d="M23.0957 12.0998L23.231 12.1404C23.3187 12.1668 23.3747 12.1801 23.3991 12.1802C23.4235 12.1805 23.4451 12.1748 23.4639 12.163C23.4826 12.1514 23.4968 12.1339 23.5062 12.1108C23.5169 12.0848 23.5174 12.0615 23.5074 12.0408C23.4981 12.0198 23.4794 12.0028 23.4515 11.9897C23.4374 11.9835 23.3933 11.9692 23.3192 11.9471L23.1766 11.9041L23.0957 12.0998Z" fill="white"/>
<path d="M23.8569 12.46C23.8861 12.3805 23.9245 12.3174 23.972 12.271C24.0072 12.2368 24.0493 12.2081 24.0963 12.1864C24.1441 12.1644 24.1923 12.1515 24.2408 12.1476C24.3054 12.1422 24.375 12.1494 24.4496 12.1692C24.5847 12.205 24.6795 12.2694 24.7343 12.3622C24.7895 12.4551 24.7939 12.5652 24.7473 12.6922C24.7013 12.8183 24.6249 12.9063 24.5184 12.9564C24.412 13.0061 24.2914 13.0129 24.1568 12.9772C24.0205 12.941 23.9251 12.877 23.8705 12.785C23.816 12.6927 23.8114 12.5843 23.8569 12.46Z" fill="#309E3A"/>
<path d="M24.0505 12.5058C24.0182 12.5941 24.0175 12.6675 24.0487 12.7262C24.08 12.7843 24.1326 12.8232 24.2064 12.8428C24.2802 12.8623 24.3487 12.8558 24.4124 12.8232C24.4764 12.7905 24.5251 12.7287 24.5583 12.6382C24.591 12.5487 24.5923 12.4759 24.5621 12.4195C24.5324 12.3633 24.4793 12.3251 24.4031 12.3049C24.3268 12.2846 24.2571 12.2907 24.1941 12.3231C24.1312 12.3551 24.0835 12.4159 24.0505 12.5058Z" fill="white"/>
<path d="M25.7335 13.5987L26.1745 12.8724L26.5368 13.032C26.628 13.0723 26.6901 13.1079 26.7231 13.1394C26.7568 13.1704 26.7759 13.2082 26.7805 13.2525C26.7851 13.2969 26.7742 13.3403 26.7482 13.3833C26.7152 13.4378 26.6689 13.4745 26.6095 13.4937C26.5504 13.5125 26.4809 13.51 26.4003 13.4862C26.4263 13.5211 26.4447 13.555 26.4553 13.5877C26.4662 13.6206 26.4751 13.6743 26.4819 13.7489L26.5 13.9364L26.2942 13.8457L26.2657 13.6329C26.2557 13.5568 26.2471 13.5081 26.2397 13.4864C26.2325 13.4644 26.2211 13.4466 26.2062 13.4333C26.1915 13.4197 26.1643 13.4041 26.1247 13.3867L26.0898 13.3713L25.9058 13.6745L25.7335 13.5987Z" fill="#309E3A"/>
<path d="M26.1596 13.2549L26.287 13.311C26.3695 13.3474 26.4229 13.3671 26.4472 13.3702C26.4712 13.3734 26.4936 13.3702 26.5141 13.3608C26.5344 13.3514 26.5512 13.3358 26.5644 13.3139C26.5793 13.2894 26.5834 13.2665 26.5771 13.2448C26.5711 13.2229 26.5554 13.2038 26.53 13.1876C26.5169 13.1798 26.4757 13.1605 26.4057 13.1297L26.2715 13.0706L26.1596 13.2549Z" fill="white"/>
<path d="M29.2949 15.0911C29.3497 15.0221 29.4077 14.9711 29.4692 14.9382C29.5145 14.9142 29.5645 14.8972 29.6167 14.8879C29.6665 14.8787 29.718 14.8781 29.768 14.8863C29.8319 14.897 29.8961 14.9211 29.9608 14.9584C30.078 15.0258 30.147 15.1107 30.1681 15.213C30.1894 15.3156 30.1562 15.4219 30.0685 15.5322C29.9817 15.6415 29.8789 15.7071 29.76 15.7288C29.6412 15.7501 29.5235 15.7272 29.4066 15.6599C29.2885 15.5917 29.2188 15.5069 29.1976 15.4054C29.1767 15.3036 29.2093 15.1988 29.2949 15.0911Z" fill="#309E3A"/>
<path d="M29.4647 15.1815C29.4038 15.2583 29.3784 15.3284 29.3883 15.3921C29.3986 15.4555 29.4357 15.5055 29.4997 15.5424C29.5637 15.5793 29.6317 15.59 29.7036 15.5745C29.7762 15.5588 29.8437 15.5117 29.906 15.4331C29.9676 15.3555 29.9936 15.2861 29.9837 15.2247C29.9742 15.1636 29.9364 15.114 29.8703 15.0758C29.8042 15.0377 29.7354 15.0263 29.664 15.0418C29.593 15.057 29.5268 15.1037 29.4647 15.1815Z" fill="white"/>
<path d="M20.7504 11.9305L20.9049 11.3565L21.4046 11.4542L21.3786 11.5512L21.0152 11.4802L20.9805 11.6073L21.3192 11.6736L21.2929 11.7701L20.9548 11.7041L20.9126 11.8603L21.289 11.9338L21.263 12.0306L20.7504 11.9305Z" fill="#309E3A"/>
</svg>
