<svg width="44" height="29" viewBox="0 0 44 29" fill="none" xmlns="http://www.w3.org/2000/svg">
<path d="M42.5333 1.45H1.46667V3.45825H42.5333V1.45Z" fill="#B22234"/>
<path d="M42.5333 3.45825H1.46667V5.4665H42.5333V3.45825Z" fill="white"/>
<path d="M42.5333 5.4665H1.46667V7.47475H42.5333V5.4665Z" fill="#B22234"/>
<path d="M42.5333 7.47475H1.46667V9.483H42.5333V7.47475Z" fill="white"/>
<path d="M42.5333 9.483H1.46667V11.4913H42.5333V9.483Z" fill="#B22234"/>
<path d="M42.5333 11.4913H1.46667V13.4995H42.5333V11.4913Z" fill="white"/>
<path d="M42.5333 13.4995H1.46667V15.5077H42.5333V13.4995Z" fill="#B22234"/>
<path d="M42.5333 15.5077H1.46667V17.516H42.5333V15.5077Z" fill="white"/>
<path d="M42.5333 17.516H1.46667V19.5243H42.5333V17.516Z" fill="#B22234"/>
<path d="M42.5333 19.5243H1.46667V21.5325H42.5333V19.5243Z" fill="white"/>
<path d="M42.5333 21.5325H1.46667V23.5408H42.5333V21.5325Z" fill="#B22234"/>
<path d="M42.5333 23.5408H1.46667V25.549H42.5333V23.5408Z" fill="white"/>
<path d="M22 1.45H1.46667V15.5077L22 15.5077V1.45Z" fill="#3C3B6E"/>
<path d="M3.66667 3.6076L3.19 3.94835L3.3704 3.39445L2.8952 3.04355H3.48333L3.66667 2.49835L3.85 3.04355H4.43813L3.96293 3.39445L4.14333 3.94835L3.66667 3.6076Z" fill="white"/>
<path d="M6.89333 3.6076L6.41667 3.94835L6.59707 3.39445L6.12187 3.04355H6.71L6.89333 2.49835L7.07667 3.04355H7.6648L7.1896 3.39445L7.37 3.94835L6.89333 3.6076Z" fill="white"/>
<path d="M10.12 3.6076L9.64333 3.94835L9.82373 3.39445L9.34853 3.04355H9.93667L10.12 2.49835L10.3033 3.04355H10.8915L10.4163 3.39445L10.5967 3.94835L10.12 3.6076Z" fill="white"/>
<path d="M13.3467 3.6076L12.87 3.94835L13.0504 3.39445L12.5752 3.04355H13.1633L13.3467 2.49835L13.53 3.04355H14.1181L13.6429 3.39445L13.8233 3.94835L13.3467 3.6076Z" fill="white"/>
<path d="M16.5733 3.6076L16.0967 3.94835L16.2771 3.39445L15.8019 3.04355H16.39L16.5733 2.49835L16.7567 3.04355H17.3448L16.8696 3.39445L17.05 3.94835L16.5733 3.6076Z" fill="white"/>
<path d="M19.8 3.6076L19.3233 3.94835L19.5037 3.39445L19.0285 3.04355H19.6167L19.8 2.49835L19.9833 3.04355H20.5715L20.0963 3.39445L20.2767 3.94835L19.8 3.6076Z" fill="white"/>
<path d="M5.28 5.36065L4.80333 5.69995L4.98373 5.1475L4.50853 4.79515H5.09667L5.28 4.24995L5.46333 4.79515H6.05147L5.57627 5.1475L5.75667 5.69995L5.28 5.36065Z" fill="white"/>
<path d="M8.50667 5.36065L8.03 5.69995L8.2104 5.1475L7.7352 4.79515H8.32333L8.50667 4.24995L8.69 4.79515H9.27813L8.80293 5.1475L8.98333 5.69995L8.50667 5.36065Z" fill="white"/>
<path d="M11.7333 5.36065L11.2567 5.69995L11.4371 5.1475L10.9619 4.79515H11.55L11.7333 4.24995L11.9167 4.79515H12.5048L12.0296 5.1475L12.21 5.69995L11.7333 5.36065Z" fill="white"/>
<path d="M14.96 5.36065L14.4833 5.69995L14.6637 5.1475L14.1885 4.79515H14.7767L14.96 4.24995L15.1433 4.79515H15.7315L15.2563 5.1475L15.4367 5.69995L14.96 5.36065Z" fill="white"/>
<path d="M18.1867 5.36065L17.71 5.69995L17.8904 5.1475L17.4152 4.79515H18.0033L18.1867 4.24995L18.37 4.79515H18.9581L18.4829 5.1475L18.6633 5.69995L18.1867 5.36065Z" fill="white"/>
<path d="M3.66667 7.11225L3.19 7.453L3.3704 6.8991L2.8952 6.54675H3.48333L3.66667 6.003L3.85 6.54675H4.43813L3.96293 6.8991L4.14333 7.453L3.66667 7.11225Z" fill="white"/>
<path d="M6.89333 7.11225L6.41667 7.453L6.59707 6.8991L6.12187 6.54675H6.71L6.89333 6.003L7.07667 6.54675H7.6648L7.1896 6.8991L7.37 7.453L6.89333 7.11225Z" fill="white"/>
<path d="M10.12 7.11225L9.64333 7.453L9.82373 6.8991L9.34853 6.54675H9.93667L10.12 6.003L10.3033 6.54675H10.8915L10.4163 6.8991L10.5967 7.453L10.12 7.11225Z" fill="white"/>
<path d="M13.3467 7.11225L12.87 7.453L13.0504 6.8991L12.5752 6.54675H13.1633L13.3467 6.003L13.53 6.54675H14.1181L13.6429 6.8991L13.8233 7.453L13.3467 7.11225Z" fill="white"/>
<path d="M16.5733 7.11225L16.0967 7.453L16.2771 6.8991L15.8019 6.54675H16.39L16.5733 6.003L16.7567 6.54675H17.3448L16.8696 6.8991L17.05 7.453L16.5733 7.11225Z" fill="white"/>
<path d="M19.8 7.11225L19.3233 7.453L19.5037 6.8991L19.0285 6.54675H19.6167L19.8 6.003L19.9833 6.54675H20.5715L20.0963 6.8991L20.2767 7.453L19.8 7.11225Z" fill="white"/>
<path d="M5.28 8.86385L4.80333 9.2046L4.98373 8.6507L4.50853 8.2998H5.09667L5.28 7.7546L5.46333 8.2998H6.05147L5.57627 8.6507L5.75667 9.2046L5.28 8.86385Z" fill="white"/>
<path d="M8.50667 8.86385L8.03 9.2046L8.2104 8.6507L7.7352 8.2998H8.32333L8.50667 7.7546L8.69 8.2998H9.27813L8.80293 8.6507L8.98333 9.2046L8.50667 8.86385Z" fill="white"/>
<path d="M11.7333 8.86385L11.2567 9.2046L11.4371 8.6507L10.9619 8.2998H11.55L11.7333 7.7546L11.9167 8.2998H12.5048L12.0296 8.6507L12.21 9.2046L11.7333 8.86385Z" fill="white"/>
<path d="M14.96 8.86385L14.4833 9.2046L14.6637 8.6507L14.1885 8.2998H14.7767L14.96 7.7546L15.1433 8.2998H15.7315L15.2563 8.6507L15.4367 9.2046L14.96 8.86385Z" fill="white"/>
<path d="M18.1867 8.86385L17.71 9.2046L17.8904 8.6507L17.4152 8.2998H18.0033L18.1867 7.7546L18.37 8.2998H18.9581L18.4829 8.6507L18.6633 9.2046L18.1867 8.86385Z" fill="white"/>
<path d="M3.66667 10.6169L3.19 10.9562L3.3704 10.4038L2.8952 10.0514H3.48333L3.66667 9.5062L3.85 10.0514H4.43813L3.96293 10.4038L4.14333 10.9562L3.66667 10.6169Z" fill="white"/>
<path d="M6.89333 10.6169L6.41667 10.9562L6.59707 10.4038L6.12187 10.0514H6.71L6.89333 9.5062L7.07667 10.0514H7.6648L7.1896 10.4038L7.37 10.9562L6.89333 10.6169Z" fill="white"/>
<path d="M10.12 10.6169L9.64333 10.9562L9.82373 10.4038L9.34853 10.0514H9.93667L10.12 9.5062L10.3033 10.0514H10.8915L10.4163 10.4038L10.5967 10.9562L10.12 10.6169Z" fill="white"/>
<path d="M13.3467 10.6169L12.87 10.9562L13.0504 10.4038L12.5752 10.0514H13.1633L13.3467 9.5062L13.53 10.0514H14.1181L13.6429 10.4038L13.8233 10.9562L13.3467 10.6169Z" fill="white"/>
<path d="M16.5733 10.6169L16.0967 10.9562L16.2771 10.4038L15.8019 10.0514H16.39L16.5733 9.5062L16.7567 10.0514H17.3448L16.8696 10.4038L17.05 10.9562L16.5733 10.6169Z" fill="white"/>
<path d="M19.8 10.6169L19.3233 10.9562L19.5037 10.4038L19.0285 10.0514H19.6167L19.8 9.5062L19.9833 10.0514H20.5715L20.0963 10.4038L20.2767 10.9562L19.8 10.6169Z" fill="white"/>
<path d="M3.66667 14.1201L3.19 14.4608L3.3704 13.9069L2.8952 13.556H3.48333L3.66667 13.0108L3.85 13.556H4.43813L3.96293 13.9069L4.14333 14.4608L3.66667 14.1201Z" fill="white"/>
<path d="M6.89333 14.1201L6.41667 14.4608L6.59707 13.9069L6.12187 13.556H6.71L6.89333 13.0108L7.07667 13.556H7.6648L7.1896 13.9069L7.37 14.4608L6.89333 14.1201Z" fill="white"/>
<path d="M10.12 14.1201L9.64333 14.4608L9.82373 13.9069L9.34853 13.556H9.93667L10.12 13.0108L10.3033 13.556H10.8915L10.4163 13.9069L10.5967 14.4608L10.12 14.1201Z" fill="white"/>
<path d="M13.3467 14.1201L12.87 14.4608L13.0504 13.9069L12.5752 13.556H13.1633L13.3467 13.0108L13.53 13.556H14.1181L13.6429 13.9069L13.8233 14.4608L13.3467 14.1201Z" fill="white"/>
<path d="M16.5733 14.1201L16.0967 14.4608L16.2771 13.9069L15.8019 13.556H16.39L16.5733 13.0108L16.7567 13.556H17.3448L16.8696 13.9069L17.05 14.4608L16.5733 14.1201Z" fill="white"/>
<path d="M19.8 14.1201L19.3233 14.4608L19.5037 13.9069L19.0285 13.556H19.6167L19.8 13.0108L19.9833 13.556H20.5715L20.0963 13.9069L20.2767 14.4608L19.8 14.1201Z" fill="white"/>
<path d="M5.28 12.3685L4.80333 12.7092L4.98373 12.1554L4.50853 11.803H5.09667L5.28 11.2592L5.46333 11.803H6.05147L5.57627 12.1554L5.75667 12.7092L5.28 12.3685Z" fill="white"/>
<path d="M8.50667 12.3685L8.03 12.7092L8.2104 12.1554L7.7352 11.803H8.32333L8.50667 11.2592L8.69 11.803H9.27813L8.80293 12.1554L8.98333 12.7092L8.50667 12.3685Z" fill="white"/>
<path d="M11.7333 12.3685L11.2567 12.7092L11.4371 12.1554L10.9619 11.803H11.55L11.7333 11.2592L11.9167 11.803H12.5048L12.0296 12.1554L12.21 12.7092L11.7333 12.3685Z" fill="white"/>
<path d="M14.96 12.3685L14.4833 12.7092L14.6637 12.1554L14.1885 11.803H14.7767L14.96 11.2592L15.1433 11.803H15.7315L15.2563 12.1554L15.4367 12.7092L14.96 12.3685Z" fill="white"/>
<path d="M18.1867 12.3685L17.71 12.7092L17.8904 12.1554L17.4152 11.803H18.0033L18.1867 11.2592L18.37 11.803H18.9581L18.4829 12.1554L18.6633 12.7092L18.1867 12.3685Z" fill="white"/>
<path d="M42.5333 25.549H1.46667V27.55H42.5333V25.549Z" fill="#B22234"/>
</svg>
