<svg width="49" height="46" viewBox="0 0 49 46" fill="none" xmlns="http://www.w3.org/2000/svg">
<path d="M46.9143 3.41348V20.0635H2.06409V3.41348C2.06409 2.66789 2.66649 2.06348 3.40959 2.06348H45.5688C46.312 2.06348 46.9143 2.66789 46.9143 3.41348Z" stroke="#FD8F03" stroke-width="4.12702" stroke-linecap="round" stroke-linejoin="round"/>
<path d="M37.9443 11.0635H40.1868" stroke="#FD8F03" stroke-width="4.12702" stroke-linecap="round" stroke-linejoin="round"/>
<path d="M2.06409 20.0635L3.83498 25.8784C4.41128 27.7709 6.15205 29.0635 8.12423 29.0635H11.0341" stroke="#FD8F03" stroke-width="4.12702" stroke-linecap="round" stroke-linejoin="round"/>
<path d="M46.9144 20.0635L45.1435 25.8784C44.5671 27.7709 42.8265 29.0635 40.8542 29.0635H37.9443" stroke="#FD8F03" stroke-width="4.12702" stroke-linecap="round" stroke-linejoin="round"/>
<path d="M18.883 27.9385C18.883 27.9385 18.883 43.6885 11.0342 43.6885" stroke="#FD8F03" stroke-width="4.12702" stroke-linecap="round" stroke-linejoin="round"/>
<path d="M30.0955 27.9385C30.0955 27.9385 30.0955 43.6885 37.9443 43.6885" stroke="#FD8F03" stroke-width="4.12702" stroke-linecap="round" stroke-linejoin="round"/>
<path d="M24.4893 27.9385V43.6885" stroke="#FD8F03" stroke-width="4.12702" stroke-linecap="round" stroke-linejoin="round"/>
</svg>
