<svg width="19" height="17" viewBox="0 0 19 17" fill="none" xmlns="http://www.w3.org/2000/svg">
<path d="M6.08325 0C6.35215 0 6.61003 0.0934451 6.80017 0.259779C6.99031 0.426112 7.09712 0.651709 7.09712 0.88694V1.77388H11.1526V0.88694C11.1526 0.651709 11.2594 0.426112 11.4496 0.259779C11.6397 0.0934451 11.8976 0 12.1665 0C12.4354 0 12.6933 0.0934451 12.8834 0.259779C13.0736 0.426112 13.1804 0.651709 13.1804 0.88694V1.77388H16.222C16.7598 1.77388 17.2756 1.96077 17.6558 2.29344C18.0361 2.6261 18.2497 3.0773 18.2497 3.54776V15.078C18.2497 15.5484 18.0361 15.9996 17.6558 16.3323C17.2756 16.665 16.7598 16.8519 16.222 16.8519H2.02775C1.48996 16.8519 0.974191 16.665 0.593914 16.3323C0.213637 15.9996 0 15.5484 0 15.078V3.54776C0 3.0773 0.213637 2.6261 0.593914 2.29344C0.974191 1.96077 1.48996 1.77388 2.02775 1.77388H5.06937V0.88694C5.06937 0.651709 5.17619 0.426112 5.36633 0.259779C5.55647 0.0934451 5.81435 0 6.08325 0ZM5.06937 3.54776H2.02775V6.20858H16.222V3.54776H13.1804V4.4347C13.1804 4.66993 13.0736 4.89553 12.8834 5.06186C12.6933 5.22819 12.4354 5.32164 12.1665 5.32164C11.8976 5.32164 11.6397 5.22819 11.4496 5.06186C11.2594 4.89553 11.1526 4.66993 11.1526 4.4347V3.54776H7.09712V4.4347C7.09712 4.66993 6.99031 4.89553 6.80017 5.06186C6.61003 5.22819 6.35215 5.32164 6.08325 5.32164C5.81435 5.32164 5.55647 5.22819 5.36633 5.06186C5.17619 4.89553 5.06937 4.66993 5.06937 4.4347V3.54776ZM16.222 7.98246H2.02775V15.078H16.222V7.98246Z" fill="black"/>
</svg>
